<svg width="84" height="77" viewBox="0 0 84 77" fill="none" xmlns="http://www.w3.org/2000/svg">
<rect width="25.2046" height="5.04092" transform="matrix(0.680616 -0.73264 0.680616 0.73264 4.50024 73.3069)" fill="white"/>
<rect width="25.2046" height="5.04092" transform="matrix(0.680616 -0.73264 0.680616 0.73264 22.6594 73.3069)" fill="white"/>
<rect width="25.2046" height="5.04092" transform="matrix(0.680616 -0.73264 0.680616 0.73264 40.8193 73.3069)" fill="white"/>
<rect x="15.4536" y="44.395" width="46.0947" height="5.22295" fill="white"/>
<path fill-rule="evenodd" clip-rule="evenodd" d="M67.1038 27.5L71.1002 15.67L76.1037 15.6688L71.8238 27.5H67.1038ZM64.3168 35.75L61.396 44.3961L61.3962 47.0077L61.3962 49.6191H63.8223L68.8394 35.75H64.3168Z" fill="white"/>
<path fill-rule="evenodd" clip-rule="evenodd" d="M9.74574 27.5L5.74894 15.6689L0.896973 15.6687L5.12425 27.5H9.74574ZM12.5328 35.75H8.07195L13.0269 49.618H15.453L15.453 47.0066L15.4532 44.3949L12.5328 35.75Z" fill="white"/>
<path d="M0.896973 15.3959C0.896973 12.6621 3.11316 10.4459 5.84697 10.4459H76.104V15.6688H0.896973V15.3959Z" fill="white"/>
<path d="M71.2527 12.5903L77.3495 3.58015C78.6874 1.60294 81.2949 1.19421 83.1737 2.66722V2.66722C83.461 2.89251 83.528 3.32028 83.3234 3.62268L75.1747 15.6653L71.2527 12.5903Z" fill="white"/>
</svg>
