<svg width="72" height="101" viewBox="0 0 72 101" fill="none" xmlns="http://www.w3.org/2000/svg">
<rect width="24.5303" height="4.90606" transform="matrix(0.680616 -0.73264 0.680616 0.73264 7.16064 97.4055)" fill="white"/>
<rect width="24.5303" height="4.90606" transform="matrix(0.680616 -0.73264 0.680616 0.73264 24.8345 97.4055)" fill="white"/>
<rect width="24.5303" height="4.90606" transform="matrix(0.680616 -0.73264 0.680616 0.73264 42.5088 97.4055)" fill="white"/>
<path d="M9.74786 12.1658H53.7305C62.3038 12.1658 69.2538 19.1158 69.2538 27.6891V56.1484C69.2538 64.7217 62.3038 71.6717 53.7305 71.6717H25.2711C16.6979 71.6717 9.74786 64.7217 9.74786 56.1485V12.1658Z" stroke="white" stroke-width="5.17443"/>
<rect x="25.2715" y="27.6895" width="43.9826" height="5.17443" fill="white"/>
<path d="M0.459961 2.81799V2.81799C2.85668 1.26155 6.06135 1.94272 7.61779 4.33944L10.9717 9.50404C11.7499 10.7024 11.4094 12.3047 10.211 13.083V13.083C9.01265 13.8612 7.41031 13.5206 6.63209 12.3222L0.459961 2.81799Z" fill="white"/>
</svg>
