<svg width="91" height="145" viewBox="0 0 91 145" fill="none" xmlns="http://www.w3.org/2000/svg">
<circle cx="44.1" cy="25.5732" r="22.3444" stroke="white" stroke-width="6.45747"/>
<mask id="path-2-inside-1_193_10" fill="white">
<path d="M76.4978 94.3583C80.4718 93.6576 83.1887 89.8281 81.7594 86.0543C79.3711 79.7487 75.3709 74.1291 70.1039 69.7872C62.9443 63.8853 53.9138 60.7317 44.6367 60.8937C35.3595 61.0556 26.4446 64.5224 19.4954 70.6706C14.383 75.1936 10.5814 80.9494 8.41467 87.3346C7.11796 91.1559 9.96684 94.8882 13.9629 95.4498L26.164 97.1646C30.16 97.7262 33.7437 94.643 36.4849 91.6816C36.7556 91.3892 37.0417 91.1092 37.3425 90.8431C39.4886 88.9444 42.2417 87.8738 45.1067 87.8238C47.9717 87.7738 50.7606 88.7477 52.9716 90.5703C53.2815 90.8258 53.5772 91.0955 53.858 91.3784C56.7008 94.2423 60.3899 97.1985 64.364 96.4978L76.4978 94.3583Z"/>
</mask>
<path d="M76.4978 94.3583C80.4718 93.6576 83.1887 89.8281 81.7594 86.0543C79.3711 79.7487 75.3709 74.1291 70.1039 69.7872C62.9443 63.8853 53.9138 60.7317 44.6367 60.8937C35.3595 61.0556 26.4446 64.5224 19.4954 70.6706C14.383 75.1936 10.5814 80.9494 8.41467 87.3346C7.11796 91.1559 9.96684 94.8882 13.9629 95.4498L26.164 97.1646C30.16 97.7262 33.7437 94.643 36.4849 91.6816C36.7556 91.3892 37.0417 91.1092 37.3425 90.8431C39.4886 88.9444 42.2417 87.8738 45.1067 87.8238C47.9717 87.7738 50.7606 88.7477 52.9716 90.5703C53.2815 90.8258 53.5772 91.0955 53.858 91.3784C56.7008 94.2423 60.3899 97.1985 64.364 96.4978L76.4978 94.3583Z" stroke="white" stroke-width="12.8981" mask="url(#path-2-inside-1_193_10)"/>
</svg>
