<svg width="78" height="77" viewBox="0 0 78 77" fill="none" xmlns="http://www.w3.org/2000/svg">
<path fill-rule="evenodd" clip-rule="evenodd" d="M71.7502 43.0296C69.5309 58.7343 55.9394 70.8707 39.4314 70.8707C22.9235 70.8707 9.33198 58.7343 7.11266 43.0296H0.931432C3.18869 62.158 19.5648 77 39.4314 77C59.298 77 75.6742 62.158 77.9314 43.0296H71.7502ZM7.11262 33.9707C9.33181 18.2658 22.9234 6.12931 39.4314 6.12931C55.9395 6.12931 69.531 18.2658 71.7502 33.9707H77.9315C75.6743 14.8422 59.2981 0 39.4314 0C19.5647 0 3.18852 14.8422 0.931396 33.9707H7.11262Z" fill="white"/>
<circle cx="39.4315" cy="26.8125" r="9.02344" stroke="white" stroke-width="2.57812"/>
<path fill-rule="evenodd" clip-rule="evenodd" d="M51.8064 57.75C51.8064 57.7499 51.8064 57.7499 51.8064 57.7499C51.8064 50.9154 46.2659 45.3749 39.4314 45.3749C32.5969 45.3749 27.0564 50.9154 27.0564 57.7499C27.0564 57.7499 27.0564 57.7499 27.0564 57.75H22.9314C22.9314 57.7499 22.9314 57.7499 22.9314 57.7499C22.9314 48.6372 30.3187 41.2499 39.4314 41.2499C48.5441 41.2499 55.9314 48.6372 55.9314 57.7499C55.9314 57.7499 55.9314 57.7499 55.9314 57.75H51.8064Z" fill="white"/>
</svg>
