<svg width="79" height="76" viewBox="0 0 79 76" fill="none" xmlns="http://www.w3.org/2000/svg">
<path fill-rule="evenodd" clip-rule="evenodd" d="M49.8976 31.3055C48.3142 41.5593 39.4505 49.4097 28.7533 49.4097C18.056 49.4097 9.19232 41.5593 7.609 31.3055H0.96558C2.59473 45.2068 14.4144 55.9931 28.7533 55.9931C43.0922 55.9931 54.9118 45.2068 56.541 31.3055H49.8976ZM7.609 24.7221C9.1923 14.4682 18.056 6.61785 28.7533 6.61785C39.4505 6.61785 48.3143 14.4682 49.8976 24.7221H56.541C54.9118 10.8208 43.0922 0.0344849 28.7533 0.0344849C14.4144 0.0344849 2.59471 10.8208 0.965576 24.7221H7.609Z" fill="white"/>
<path d="M54.9961 47.764L76.8312 69.5992C77.7954 70.5633 77.7954 72.1264 76.8312 73.0905L75.6675 74.2543C74.7033 75.2184 73.1402 75.2184 72.1761 74.2543L50.341 52.4192L54.9961 47.764Z" fill="white"/>
</svg>
