<svg width="102" height="101" viewBox="0 0 102 101" fill="none" xmlns="http://www.w3.org/2000/svg">
<path fill-rule="evenodd" clip-rule="evenodd" d="M43.6268 78.2732C62.7614 78.2732 78.2732 62.7614 78.2732 43.6268C78.2732 24.4921 62.7614 8.98034 43.6268 8.98034C24.4921 8.98034 8.98034 24.4921 8.98034 43.6268C8.98034 62.7614 24.4921 78.2732 43.6268 78.2732ZM43.6268 87.2535C67.7212 87.2535 87.2535 67.7212 87.2535 43.6268C87.2535 19.5324 67.7212 0 43.6268 0C19.5324 0 0 19.5324 0 43.6268C0 67.7212 19.5324 87.2535 43.6268 87.2535Z" fill="white"/>
<path d="M79.7744 75.3766L99.5893 95.1914C100.464 96.0663 100.464 97.4848 99.5893 98.3597L98.5332 99.4159C97.6582 100.291 96.2397 100.291 95.3648 99.4159L75.55 79.601L79.7744 75.3766Z" fill="white"/>
</svg>
